<svg height="512" viewBox="0 0 64 64" width="512" xmlns="http://www.w3.org/2000/svg"><g id="Stroke_copy_3" data-name="Stroke copy 3"><g fill="#1C2335"><path d="m40 32h-7a4 4 0 0 0 -4 4v4a4 4 0 0 0 4 4h12v-7a5 5 0 0 0 -5-5z"/><path d="m45 37h8v10h-8z"/><path d="m36 44h9a0 0 0 0 1 0 0v4a0 0 0 0 1 0 0h-7a2 2 0 0 1 -2-2v-2a0 0 0 0 1 0 0z"/></g><path d="m12 39v-21h-1a8 8 0 0 0 -8 8v35h26v-8h-3a14 14 0 0 1 -14-14z" fill="#1C2335"/><path d="m11 18h10a8 8 0 0 1 8 8v6a0 0 0 0 1 0 0h-26a0 0 0 0 1 0 0v-6a8 8 0 0 1 8-8z" fill="#1C2335"/><path d="m11 14h10v4h-10z" fill="#1C2335"/><path d="m55 38h-2v8h8v-3h-1a5 5 0 0 1 -5-5z" fill="#1C2335"/></g><g id="Stroke_Close" fill="#B7202B" data-name="Stroke Close"><path d="m61 45h-7v-6h7a1 1 0 0 0 0-2h-7a1 1 0 0 0 -1-1h-7.09a6 6 0 0 0 -5.91-5h-7a4.92 4.92 0 0 0 -3 1v-6a9 9 0 0 0 -8-8.94v-3.06a1 1 0 0 0 -1-1h-1.09l-.91-10.09a1 1 0 1 0 -2 .18l.9 9.91h-3.8l.9-9.91a1 1 0 0 0 -2-.18l-.91 10.09h-1.09a1 1 0 0 0 -1 1v3.06a9 9 0 0 0 -8 8.94v35a1 1 0 0 0 2 0v-28h24v28a1 1 0 0 0 2 0v-17a4.92 4.92 0 0 0 3 1h2v1a3 3 0 0 0 3 3h7a1 1 0 0 0 1-1h7a1 1 0 0 0 1-1h7a1 1 0 0 0 0-2zm-49-30h8v2h-8zm-8 16v-5a7 7 0 0 1 7-7h10a7 7 0 0 1 7 7v5zm34 16a1 1 0 0 1 -1-1v-1h4a1 1 0 0 0 0-2h-8a3 3 0 0 1 -3-3v-4a3 3 0 0 1 3-3h7a4 4 0 0 1 4 4v10zm8-1v-8h2v4a1 1 0 0 0 2 0v-4h2v8z"/><path d="m47.27 51.54a5.45 5.45 0 0 0 -6.9 4.46 5.46 5.46 0 0 0 -7.37 3.76 1 1 0 0 0 .76 1.24 1 1 0 0 0 1.24-.76 3.43 3.43 0 0 1 5.81-1.55 1 1 0 0 0 1.22.17 1 1 0 0 0 .46-1.14 3.45 3.45 0 0 1 4.26-4.26 1 1 0 0 0 .55-1.92z"/><path d="m31.84 20.92a5.39 5.39 0 0 0 2.16-1.66 5.48 5.48 0 0 0 6.37 1.74 5.47 5.47 0 0 0 4.63 4.63 5.46 5.46 0 0 0 3.76 7.37 1 1 0 0 0 1.24-.76 1 1 0 0 0 -.76-1.24 3.43 3.43 0 0 1 -1.55-5.81 1 1 0 0 0 -1-1.68 3.45 3.45 0 0 1 -4.26-4.26 1 1 0 0 0 -.43-1.11 1 1 0 0 0 -1.22.17 3.43 3.43 0 0 1 -5.78-1.55 1 1 0 0 0 -1.94 0 3.37 3.37 0 0 1 -2 2.32 1 1 0 0 0 -.52 1.32 1 1 0 0 0 1.3.52z"/></g></svg>