<svg height="512" viewBox="0 0 64 64" width="512" xmlns="http://www.w3.org/2000/svg"><g id="Stroke_copy_3" data-name="Stroke copy 3"><path d="m4.63 59.37a5.57 5.57 0 0 1 .3-8.16l16-13.76 5.65 5.65-13.76 16a5.57 5.57 0 0 1 -8.19.27z" fill="#1C2335"/><path d="m55.73 25.14a28 28 0 0 1 -39.6 0 10.06 10.06 0 0 1 -1.58-2.07 10 10 0 0 0 1.58 12.07l12.73 12.73a10 10 0 0 0 14.14 0l12.73-12.73a18 18 0 0 0 4.56-17.73 18 18 0 0 1 -4.56 7.73z" fill="#1C2335"/><path d="m7 33h38a0 0 0 0 1 0 0 10 10 0 0 1 -10 10h-18a10 10 0 0 1 -10-10 0 0 0 0 1 0 0z" fill="#1C2335" transform="matrix(.707 .707 -.707 .707 34.47 -7.28)"/><circle cx="43" cy="15" fill="#1C2335" r="6"/></g><g id="Stroke_Close" fill="#B7202B" data-name="Stroke Close"><path d="m56.43 9-1.43-1.44a19 19 0 0 0 -26.87 0l-.41.44h-7.72a1 1 0 0 0 0 2h5.72l-3 3h-8.72a1 1 0 0 0 0 2h6.72l-3 3h-5.72a1 1 0 0 0 0 2h3.72l-.3.29a11 11 0 0 0 0 15.56l2.69 2.68-13.83 11.92a6.6 6.6 0 0 0 -2.28 4.73 6.68 6.68 0 0 0 1.92 4.9 6.62 6.62 0 0 0 4.65 1.92h.24a6.62 6.62 0 0 0 4.74-2.28l11.92-13.83 2.68 2.69a11 11 0 0 0 15.56 0l12.72-12.73a19 19 0 0 0 0-26.85zm-44.43 49.41a4.55 4.55 0 0 1 -6.69.25 4.57 4.57 0 0 1 .28-6.66l13.93-12 4.53 4.53zm17.56-11.25-12.72-12.72a9 9 0 0 1 -.67-12l25.37 25.39a9 9 0 0 1 -11.98-.67zm25.44-12.72-12 12-25.46-25.44 1-1h10.46a1 1 0 0 0 0-2h-8.46l3-3h8.46a1 1 0 0 0 0-2h-6.46l3-3h6.46a1 1 0 0 0 0-2h-4.35a17 17 0 0 1 23 1l1.35 1.39a17 17 0 0 1 0 24z"/><path d="m43 8a7 7 0 1 0 7 7 7 7 0 0 0 -7-7zm0 12a5 5 0 1 1 5-5 5 5 0 0 1 -5 5z"/><path d="m14 10h2a1 1 0 0 0 0-2h-2a1 1 0 0 0 0 2z"/><circle cx="10" cy="14" r="1"/><circle cx="7" cy="19" r="1"/><circle cx="10" cy="9" r="1"/><path d="m33.39 27.75a1 1 0 0 0 1.4.18 4.62 4.62 0 0 1 7.21 2.35 1 1 0 0 0 1.92 0 4.62 4.62 0 0 1 7.25-2.35 1 1 0 0 0 1.55-1.13 4.62 4.62 0 0 1 4.48-6.17 1 1 0 0 0 1-1 1 1 0 0 0 -1-1 6.62 6.62 0 0 0 -6.8 6.67 6.6 6.6 0 0 0 -7.4 2.45 6.61 6.61 0 0 0 -9.43-1.41 1 1 0 0 0 -.18 1.41z"/></g></svg>