<svg height="512" viewBox="0 0 64 64" width="512" xmlns="http://www.w3.org/2000/svg"><g id="Stroke_copy_3" data-name="Stroke copy 3"><path d="m3 39h58v4h-58z" fill="#1C2335"/><path d="m41.5 29.5a16 16 0 0 1 -16-16 15.81 15.81 0 0 1 2.29-8.21 16 16 0 1 0 21.92 21.92 15.81 15.81 0 0 1 -8.21 2.29z" fill="#1C2335"/><path d="m41.5 29.5a16 16 0 0 1 -13.77-7.89 17.89 17.89 0 0 0 -5.58 5.39 16 16 0 0 0 27.56.23 15.92 15.92 0 0 1 -8.21 2.27z" fill="#1C2335"/><path d="m44.87 5.68a17 17 0 0 1 -2 19.44 17.84 17.84 0 0 0 7 1.88 16 16 0 0 0 -5-21.32z" fill="#1C2335"/><path d="m27.92 21.49a17.92 17.92 0 0 0 -5.77 5.51 16 16 0 0 0 21.61 6 17 17 0 0 1 -15.84-11.51z" fill="#fcbc04"/><g fill="#1C2335"><path d="m37.87 10.44a18 18 0 0 0 -1.87-7.44 16 16 0 0 0 -15.91 14.34 17 17 0 0 1 17.78-6.9z"/><path d="m22.15 27a16 16 0 0 0 21.61 6 17 17 0 0 1 -15.41-10.39c-.22-.32-.42-.65-.62-1a17.86 17.86 0 0 0 -5.58 5.39z"/></g></g><g id="Stroke_Close" fill="#B7202B" data-name="Stroke Close"><path d="m3 40h58a1 1 0 0 0 0-2h-58a1 1 0 0 0 0 2z"/><path d="m61 44a1 1 0 0 0 0-2h-58a1 1 0 0 0 0 2h.82l-.29 1.72c-.07.42-.1.84-.13 1.26l-.4.02a1 1 0 0 0 0 2h.39a13.55 13.55 0 0 0 .66 3.34 6.06 6.06 0 0 1 .16.61 12.09 12.09 0 0 1 -1.21.05 1 1 0 0 0 0 2 12.14 12.14 0 0 0 1.59-.11 12.06 12.06 0 0 1 -.1 3.11l-.16 1a11.72 11.72 0 0 1 -1.33 0 1 1 0 0 0 0 2h1a1 1 0 0 0 .82 1h.18a1 1 0 0 0 1-.84l.08-.52c.39-.09.77-.2 1.14-.32l1.1-.32a8.19 8.19 0 0 1 1.9-.37l-.22 1.21a1 1 0 0 0 .84 1.16h.16a1 1 0 0 0 1-.84l.25-1.54a7.91 7.91 0 0 1 1.44.33 10.44 10.44 0 0 0 2.4.49l-.07.4a1 1 0 0 0 .82 1.16h.16a1 1 0 0 0 1-.84l.12-.74a10.49 10.49 0 0 0 2.2-.42 8.19 8.19 0 0 1 1.9-.37l-.22 1.21a1 1 0 0 0 .84 1.16h.16a1 1 0 0 0 1-.84l.25-1.54a7.91 7.91 0 0 1 1.44.33 10.44 10.44 0 0 0 2.4.49l-.07.4a1 1 0 0 0 .82 1.16h.16a1 1 0 0 0 1-.84l.12-.74a10.49 10.49 0 0 0 2.2-.42 8.19 8.19 0 0 1 1.9-.37l-.22 1.21a1 1 0 0 0 .84 1.16h.16a1 1 0 0 0 1-.84l.25-1.54a7.91 7.91 0 0 1 1.44.33 10.44 10.44 0 0 0 2.4.49l-.07.4a1 1 0 0 0 .82 1.16h.16a1 1 0 0 0 1-.84l.12-.74a10.49 10.49 0 0 0 2.2-.42 8.19 8.19 0 0 1 1.9-.37l-.22 1.21a1 1 0 0 0 .84 1.16h.16a1 1 0 0 0 1-.84l.25-1.54a7.91 7.91 0 0 1 1.44.33 10.44 10.44 0 0 0 2.4.49l-.07.4a1 1 0 0 0 .82 1.16h.16a1 1 0 0 0 1-.84l.12-.74a10.49 10.49 0 0 0 2.2-.42l.31-.11a3.68 3.68 0 0 1 1.57-.15l-.2 1.1a1 1 0 0 0 .84 1.16h.16a1 1 0 0 0 1-.84l.1-.63a1.71 1.71 0 0 1 .2.18 1 1 0 0 0 1.42 0 1 1 0 0 0 0-1.42 5.61 5.61 0 0 0 -1.25-.94v-.07a13.57 13.57 0 0 0 .13-3.37.93.93 0 0 0 .4.09 1 1 0 0 0 .71-.29 1 1 0 0 0 0-1.42 5.78 5.78 0 0 0 -1.63-1.12c0-.16-.08-.33-.13-.49a11.78 11.78 0 0 1 -.58-3.63 3.25 3.25 0 0 1 .92.66 1 1 0 0 0 1.42 0 1 1 0 0 0 0-1.42 5.55 5.55 0 0 0 -2.19-1.29l.33-2zm-15.45 1.62a11 11 0 0 0 -1.87.43 8.28 8.28 0 0 1 -2.22.4c0-.14 0-.27 0-.4l.34-2h4zm-6 .1c0 .2 0 .41-.06.61a7.42 7.42 0 0 1 -1.15-.28 10.61 10.61 0 0 0 -2.73-.51l.24-1.54h4zm-6-.1a11 11 0 0 0 -1.87.43 8.28 8.28 0 0 1 -2.22.4c0-.14 0-.27.05-.4l.34-2h4zm-6 .1c0 .2 0 .41-.06.61a7.42 7.42 0 0 1 -1.15-.28 10.61 10.61 0 0 0 -2.73-.51l.24-1.54h4zm-6-.1a11 11 0 0 0 -1.87.43 8.28 8.28 0 0 1 -2.22.4c0-.14 0-.27.05-.4l.34-2h4zm-6 .1c0 .2 0 .41-.06.61a7.42 7.42 0 0 1 -1.15-.28 10.61 10.61 0 0 0 -2.73-.51l.24-1.54h4zm-3.61 5.84a11.68 11.68 0 0 1 -.56-4 8.7 8.7 0 0 1 2.32.41 11.08 11.08 0 0 0 1.7.41 14 14 0 0 0 .67 4v.09a8.09 8.09 0 0 1 -1.76-.36 10.44 10.44 0 0 0 -2.39-.55zm6 .12a11.28 11.28 0 0 1 -.57-3.21 10.56 10.56 0 0 0 2.95-.47 7.32 7.32 0 0 1 1.05-.26 13.51 13.51 0 0 0 .49 3.9 10.85 10.85 0 0 0 -2.18.46 8.15 8.15 0 0 1 -1.54.34c-.07-.28-.14-.52-.14-.76zm6-.12a11.68 11.68 0 0 1 -.56-4 8.7 8.7 0 0 1 2.32.41 11.08 11.08 0 0 0 1.7.41 14 14 0 0 0 .67 4v.09a8.09 8.09 0 0 1 -1.76-.36 10.44 10.44 0 0 0 -2.39-.55zm6 .12a11.28 11.28 0 0 1 -.57-3.21 10.56 10.56 0 0 0 2.95-.47 7.32 7.32 0 0 1 1-.26 13.51 13.51 0 0 0 .49 3.9 10.85 10.85 0 0 0 -2.18.46 8.15 8.15 0 0 1 -1.54.34c-.02-.28-.09-.52-.09-.76zm6-.12a11.68 11.68 0 0 1 -.56-4 8.7 8.7 0 0 1 2.32.41 11.08 11.08 0 0 0 1.7.41 14 14 0 0 0 .67 4v.09a8.09 8.09 0 0 1 -1.76-.36 10.44 10.44 0 0 0 -2.39-.55zm6 .12a11.28 11.28 0 0 1 -.57-3.21 10.56 10.56 0 0 0 2.95-.47 7.32 7.32 0 0 1 1-.26 13.51 13.51 0 0 0 .49 3.9 10.85 10.85 0 0 0 -2.18.46 8.15 8.15 0 0 1 -1.54.34c-.02-.28-.09-.52-.09-.76zm6-.12a11.68 11.68 0 0 1 -.56-4 8.7 8.7 0 0 1 2.32.41 11.08 11.08 0 0 0 1.7.41 14 14 0 0 0 .67 4v.09a8.09 8.09 0 0 1 -1.76-.36 10.44 10.44 0 0 0 -2.39-.55zm3.61-5.84c0 .2 0 .41-.06.61a7.42 7.42 0 0 1 -1.15-.28 10.61 10.61 0 0 0 -2.73-.51l.24-1.54h4zm-46 .33.34-2h4l-.27 1.62a11 11 0 0 0 -1.87.43l-1.1.37c-.38.12-.76.22-1.14.31-.05-.28-.04-.51 0-.73zm.45 5.63a12 12 0 0 1 -.57-2.9 12.9 12.9 0 0 0 1.83-.46l1.06-.32a7.32 7.32 0 0 1 1-.26 13.51 13.51 0 0 0 .49 3.9 10.85 10.85 0 0 0 -2.18.46l-1.1.37-.4.12c-.03-.34-.13-.59-.13-.91zm1.73 6.37-1.1.37h-.14v-.18a14 14 0 0 0 .08-3.77l.66-.19 1.09-.28a8.51 8.51 0 0 1 2.06-.38 11.71 11.71 0 0 1 .16 4 10.76 10.76 0 0 0 -2.86.43zm6.64 0a10.83 10.83 0 0 0 -1.79-.42 13.68 13.68 0 0 0 -.1-4 7.87 7.87 0 0 1 1.25.31 10.6 10.6 0 0 0 2.85.51 11.66 11.66 0 0 1 0 3.49l-.08.49a8.21 8.21 0 0 1 -2.18-.38zm5.36 0a8.69 8.69 0 0 1 -1.22.3v-.07a13.84 13.84 0 0 0 .06-3.91 11.33 11.33 0 0 0 1.75-.37 8.51 8.51 0 0 1 2.06-.38 11.71 11.71 0 0 1 .16 4 10.76 10.76 0 0 0 -2.86.43zm6.64 0a10.83 10.83 0 0 0 -1.79-.42 13.68 13.68 0 0 0 -.1-4 7.87 7.87 0 0 1 1.25.31 10.6 10.6 0 0 0 2.85.51 11.66 11.66 0 0 1 0 3.49l-.08.49a8.21 8.21 0 0 1 -2.18-.38zm5.36 0a8.69 8.69 0 0 1 -1.22.3v-.07a13.84 13.84 0 0 0 .06-3.91 11.33 11.33 0 0 0 1.75-.37 8.51 8.51 0 0 1 2.06-.38 11.71 11.71 0 0 1 .16 4 10.76 10.76 0 0 0 -2.86.43zm6.64 0a10.83 10.83 0 0 0 -1.79-.42 13.68 13.68 0 0 0 -.1-4 7.87 7.87 0 0 1 1.25.31 10.6 10.6 0 0 0 2.85.51 11.66 11.66 0 0 1 0 3.49l-.08.49a8.21 8.21 0 0 1 -2.18-.38zm5.36 0a8.69 8.69 0 0 1 -1.22.3v-.07a13.84 13.84 0 0 0 .06-3.91 11.33 11.33 0 0 0 1.75-.37 8.51 8.51 0 0 1 2.06-.38 11.71 11.71 0 0 1 .16 4 10.76 10.76 0 0 0 -2.86.43zm6.64 0a10.83 10.83 0 0 0 -1.79-.42 13.68 13.68 0 0 0 -.1-4 7.87 7.87 0 0 1 1.25.31 10.6 10.6 0 0 0 2.85.51 11.66 11.66 0 0 1 0 3.49l-.08.49a8.21 8.21 0 0 1 -2.18-.38zm5.63-.05-.32.1a8.69 8.69 0 0 1 -1.22.3v-.07a13.84 13.84 0 0 0 .06-3.91 11.33 11.33 0 0 0 1.8-.42l.31-.11a3.77 3.77 0 0 1 1.79-.12 11.94 11.94 0 0 1 .1 4 5.43 5.43 0 0 0 -2.52.23zm0-6-.32.1a8.15 8.15 0 0 1 -1.54.34c-.07-.23-.11-.47-.19-.71a11.28 11.28 0 0 1 -.57-3.21 10.56 10.56 0 0 0 2.94-.52l.31-.11a3.74 3.74 0 0 1 .74-.15 13.77 13.77 0 0 0 .51 4 5.54 5.54 0 0 0 -1.88.26zm1.54-6.29a5.58 5.58 0 0 0 -1.54.29l-.32.1a8.28 8.28 0 0 1 -2.22.4c0-.14 0-.27 0-.4l.34-2h4z"/><path d="m19 19a16.89 16.89 0 0 0 2.3 8.5v.06a17 17 0 0 0 29.39-.11 16.95 16.95 0 0 0 -5.21-22.55 16.88 16.88 0 0 0 -9.48-2.9h-.07a17 17 0 0 0 -16.82 15.13 16.3 16.3 0 0 0 -.11 1.87zm2.07-1.3a16.11 16.11 0 0 1 15.79-6.44 16.78 16.78 0 0 1 -1.54 6.8 19 19 0 0 0 -13 7 14.76 14.76 0 0 1 -1.32-6.06c0-.44 0-.87.07-1.3zm23-11.3a16 16 0 0 1 -1.47 17.44 16.93 16.93 0 0 1 -5.49-4.93 19 19 0 0 0 1.71-8.63 18.9 18.9 0 0 0 -1.29-6.18 15 15 0 0 1 6.58 2.3zm-20.72 20.6a16.79 16.79 0 0 1 4.09-4 18 18 0 0 0 12.38 10.49 14.89 14.89 0 0 1 -16.47-6.49zm20.15 5a16 16 0 0 1 -14.33-10 16.84 16.84 0 0 1 6.34-1.9 19 19 0 0 0 7 6l.09.05a18.82 18.82 0 0 0 5.54 1.74 15 15 0 0 1 -4.64 4.11zm7.5-13a14.87 14.87 0 0 1 -1.71 6.93 17 17 0 0 1 -4.81-1.19 18.05 18.05 0 0 0 2.92-15.47 15 15 0 0 1 3.6 9.73zm-15.64-15a17.21 17.21 0 0 1 1.42 5.18 18.17 18.17 0 0 0 -14.78 4.49 15 15 0 0 1 13.36-9.67z"/></g></svg>